<svg width="100" height="20" viewBox="0 0 100 20" fill="none" xmlns="http://www.w3.org/2000/svg">
<path d="M12.872 7.432C12.872 8.328 12.656 9.168 12.224 9.952C11.808 10.736 11.144 11.368 10.232 11.848C9.336 12.328 8.2 12.568 6.824 12.568H4.016V19H0.656V2.248H6.824C8.12 2.248 9.224 2.472 10.136 2.92C11.048 3.368 11.728 3.984 12.176 4.768C12.64 5.552 12.872 6.44 12.872 7.432ZM6.68 9.856C7.608 9.856 8.296 9.648 8.744 9.232C9.192 8.8 9.416 8.2 9.416 7.432C9.416 5.8 8.504 4.984 6.68 4.984H4.016V9.856H6.68ZM18.6176 7.768C19.0496 7.064 19.6096 6.512 20.2976 6.112C21.0016 5.712 21.8016 5.512 22.6976 5.512V9.04H21.8096C20.7536 9.04 19.9536 9.288 19.4096 9.784C18.8816 10.28 18.6176 11.144 18.6176 12.376V19H15.2576V5.704H18.6176V7.768ZM30.8647 19.216C29.5847 19.216 28.4327 18.936 27.4087 18.376C26.3847 17.8 25.5767 16.992 24.9847 15.952C24.4087 14.912 24.1207 13.712 24.1207 12.352C24.1207 10.992 24.4167 9.792 25.0087 8.752C25.6167 7.712 26.4407 6.912 27.4807 6.352C28.5207 5.776 29.6807 5.488 30.9607 5.488C32.2407 5.488 33.4007 5.776 34.4407 6.352C35.4807 6.912 36.2967 7.712 36.8887 8.752C37.4967 9.792 37.8007 10.992 37.8007 12.352C37.8007 13.712 37.4887 14.912 36.8647 15.952C36.2567 16.992 35.4247 17.8 34.3687 18.376C33.3287 18.936 32.1607 19.216 30.8647 19.216ZM30.8647 16.288C31.4727 16.288 32.0407 16.144 32.5687 15.856C33.1127 15.552 33.5447 15.104 33.8647 14.512C34.1847 13.92 34.3447 13.2 34.3447 12.352C34.3447 11.088 34.0087 10.12 33.3367 9.448C32.6807 8.76 31.8727 8.416 30.9127 8.416C29.9527 8.416 29.1447 8.76 28.4887 9.448C27.8487 10.12 27.5287 11.088 27.5287 12.352C27.5287 13.616 27.8407 14.592 28.4647 15.28C29.1047 15.952 29.9047 16.288 30.8647 16.288ZM50.6094 2.248V4.96H43.6254V9.256H48.9774V11.92H43.6254V19H40.2654V2.248H50.6094ZM54.6959 4.12C54.1039 4.12 53.6079 3.936 53.2079 3.568C52.8239 3.184 52.6319 2.712 52.6319 2.152C52.6319 1.592 52.8239 1.128 53.2079 0.759999C53.6079 0.375999 54.1039 0.183999 54.6959 0.183999C55.2879 0.183999 55.7759 0.375999 56.1599 0.759999C56.5599 1.128 56.7599 1.592 56.7599 2.152C56.7599 2.712 56.5599 3.184 56.1599 3.568C55.7759 3.936 55.2879 4.12 54.6959 4.12ZM56.3519 5.704V19H52.9919V5.704H56.3519ZM67.0396 5.512C68.6236 5.512 69.9036 6.016 70.8796 7.024C71.8556 8.016 72.3436 9.408 72.3436 11.2V19H68.9836V11.656C68.9836 10.6 68.7196 9.792 68.1916 9.232C67.6636 8.656 66.9436 8.368 66.0316 8.368C65.1036 8.368 64.3676 8.656 63.8236 9.232C63.2956 9.792 63.0316 10.6 63.0316 11.656V19H59.6716V5.704H63.0316V7.36C63.4796 6.784 64.0476 6.336 64.7356 6.016C65.4396 5.68 66.2076 5.512 67.0396 5.512ZM74.6748 12.304C74.6748 10.96 74.9388 9.768 75.4668 8.728C76.0108 7.688 76.7468 6.888 77.6748 6.328C78.6028 5.768 79.6348 5.488 80.7708 5.488C81.6348 5.488 82.4588 5.68 83.2428 6.064C84.0268 6.432 84.6508 6.928 85.1148 7.552V1.24H88.5228V19H85.1148V17.032C84.6988 17.688 84.1148 18.216 83.3628 18.616C82.6108 19.016 81.7388 19.216 80.7468 19.216C79.6268 19.216 78.6028 18.928 77.6748 18.352C76.7468 17.776 76.0108 16.968 75.4668 15.928C74.9388 14.872 74.6748 13.664 74.6748 12.304ZM85.1388 12.352C85.1388 11.536 84.9788 10.84 84.6588 10.264C84.3388 9.672 83.9068 9.224 83.3628 8.92C82.8188 8.6 82.2348 8.44 81.6108 8.44C80.9868 8.44 80.4108 8.592 79.8828 8.896C79.3548 9.2 78.9228 9.648 78.5868 10.24C78.2668 10.816 78.1068 11.504 78.1068 12.304C78.1068 13.104 78.2668 13.808 78.5868 14.416C78.9228 15.008 79.3548 15.464 79.8828 15.784C80.4268 16.104 81.0028 16.264 81.6108 16.264C82.2348 16.264 82.8188 16.112 83.3628 15.808C83.9068 15.488 84.3388 15.04 84.6588 14.464C84.9788 13.872 85.1388 13.168 85.1388 12.352ZM95.1644 7.768C95.5964 7.064 96.1564 6.512 96.8444 6.112C97.5484 5.712 98.3484 5.512 99.2444 5.512V9.04H98.3564C97.3004 9.04 96.5004 9.288 95.9564 9.784C95.4284 10.28 95.1644 11.144 95.1644 12.376V19H91.8044V5.704H95.1644V7.768Z" fill="#18191C"/>
</svg>
